<mxfile host="app.diagrams.net" agent="Mozilla/5.0 (Windows NT 10.0; Win64; x64) AppleWebKit/537.36 (KHTML, like Gecko) Chrome/132.0.0.0 Safari/537.36 OPR/117.0.0.0" version="26.2.12">
  <diagram name="Page-1" id="L7hrUSK31JTLyKZDiYwj">
    <mxGraphModel grid="0" page="0" gridSize="10" guides="1" tooltips="1" connect="1" arrows="1" fold="1" pageScale="1" pageWidth="827" pageHeight="1169" math="0" shadow="0">
      <root>
        <mxCell id="0" />
        <mxCell id="1" parent="0" />
        <mxCell id="Pk_mdqdX6ch0gD1dlvag-1" value="Start" style="ellipse;whiteSpace=wrap;html=1;aspect=fixed;" vertex="1" parent="1">
          <mxGeometry x="-45" y="-60" width="27" height="27" as="geometry" />
        </mxCell>
        <mxCell id="Pk_mdqdX6ch0gD1dlvag-4" value="" style="edgeStyle=none;curved=1;rounded=0;orthogonalLoop=1;jettySize=auto;html=1;fontSize=12;startSize=8;endSize=8;" edge="1" parent="1" source="Pk_mdqdX6ch0gD1dlvag-2">
          <mxGeometry relative="1" as="geometry">
            <mxPoint x="104.5" y="15" as="targetPoint" />
          </mxGeometry>
        </mxCell>
        <mxCell id="Pk_mdqdX6ch0gD1dlvag-2" value="Enter location" style="rounded=1;whiteSpace=wrap;html=1;" vertex="1" parent="1">
          <mxGeometry x="47" y="-60" width="115" height="27" as="geometry" />
        </mxCell>
        <mxCell id="Pk_mdqdX6ch0gD1dlvag-14" value="" style="edgeStyle=none;curved=1;rounded=0;orthogonalLoop=1;jettySize=auto;html=1;fontSize=12;startSize=8;endSize=8;" edge="1" parent="1" source="Pk_mdqdX6ch0gD1dlvag-7" target="Pk_mdqdX6ch0gD1dlvag-13">
          <mxGeometry relative="1" as="geometry" />
        </mxCell>
        <mxCell id="Pk_mdqdX6ch0gD1dlvag-7" value="Find restaurant?" style="rhombus;whiteSpace=wrap;html=1;rounded=1;" vertex="1" parent="1">
          <mxGeometry x="64.5" y="12" width="80" height="80" as="geometry" />
        </mxCell>
        <mxCell id="Pk_mdqdX6ch0gD1dlvag-9" value="No, try again" style="curved=1;endArrow=classic;html=1;rounded=0;fontSize=12;startSize=8;endSize=8;exitX=1;exitY=0.5;exitDx=0;exitDy=0;entryX=1;entryY=0.5;entryDx=0;entryDy=0;" edge="1" parent="1" source="Pk_mdqdX6ch0gD1dlvag-7" target="Pk_mdqdX6ch0gD1dlvag-2">
          <mxGeometry width="50" height="50" relative="1" as="geometry">
            <mxPoint x="175" y="225" as="sourcePoint" />
            <mxPoint x="225" y="175" as="targetPoint" />
            <Array as="points">
              <mxPoint x="210" y="-8" />
            </Array>
          </mxGeometry>
        </mxCell>
        <mxCell id="Pk_mdqdX6ch0gD1dlvag-13" value="Available table?" style="rhombus;whiteSpace=wrap;html=1;rounded=1;" vertex="1" parent="1">
          <mxGeometry x="64.5" y="137" width="80" height="80" as="geometry" />
        </mxCell>
        <mxCell id="Pk_mdqdX6ch0gD1dlvag-15" value="NO" style="curved=1;endArrow=classic;html=1;rounded=0;fontSize=12;startSize=8;endSize=8;exitX=0;exitY=0.5;exitDx=0;exitDy=0;entryX=0;entryY=0.5;entryDx=0;entryDy=0;" edge="1" parent="1" source="Pk_mdqdX6ch0gD1dlvag-13" target="Pk_mdqdX6ch0gD1dlvag-7">
          <mxGeometry x="0.0448" y="-5" width="50" height="50" relative="1" as="geometry">
            <mxPoint x="-3" y="156" as="sourcePoint" />
            <mxPoint x="62" y="50" as="targetPoint" />
            <Array as="points">
              <mxPoint x="6" y="137" />
              <mxPoint x="22" y="78" />
            </Array>
            <mxPoint as="offset" />
          </mxGeometry>
        </mxCell>
        <mxCell id="Pk_mdqdX6ch0gD1dlvag-21" value="" style="edgeStyle=none;curved=1;rounded=0;orthogonalLoop=1;jettySize=auto;html=1;fontSize=12;startSize=8;endSize=8;" edge="1" parent="1" source="Pk_mdqdX6ch0gD1dlvag-18" target="Pk_mdqdX6ch0gD1dlvag-20">
          <mxGeometry relative="1" as="geometry" />
        </mxCell>
        <mxCell id="Pk_mdqdX6ch0gD1dlvag-18" value="Select table" style="rounded=1;whiteSpace=wrap;html=1;" vertex="1" parent="1">
          <mxGeometry x="45" y="262" width="115" height="27" as="geometry" />
        </mxCell>
        <mxCell id="Pk_mdqdX6ch0gD1dlvag-19" value="Yes" style="endArrow=classic;html=1;rounded=0;fontSize=12;startSize=8;endSize=8;curved=1;" edge="1" parent="1" target="Pk_mdqdX6ch0gD1dlvag-18">
          <mxGeometry width="50" height="50" relative="1" as="geometry">
            <mxPoint x="102" y="220" as="sourcePoint" />
            <mxPoint x="284" y="175" as="targetPoint" />
          </mxGeometry>
        </mxCell>
        <mxCell id="Pk_mdqdX6ch0gD1dlvag-25" value="" style="edgeStyle=none;curved=1;rounded=0;orthogonalLoop=1;jettySize=auto;html=1;fontSize=12;startSize=8;endSize=8;" edge="1" parent="1" source="Pk_mdqdX6ch0gD1dlvag-20" target="Pk_mdqdX6ch0gD1dlvag-24">
          <mxGeometry relative="1" as="geometry" />
        </mxCell>
        <mxCell id="Pk_mdqdX6ch0gD1dlvag-20" value="Confirm table" style="rounded=1;whiteSpace=wrap;html=1;" vertex="1" parent="1">
          <mxGeometry x="242" y="262" width="115" height="27" as="geometry" />
        </mxCell>
        <mxCell id="Pk_mdqdX6ch0gD1dlvag-27" value="" style="edgeStyle=none;curved=1;rounded=0;orthogonalLoop=1;jettySize=auto;html=1;fontSize=12;startSize=8;endSize=8;" edge="1" parent="1" source="Pk_mdqdX6ch0gD1dlvag-24" target="Pk_mdqdX6ch0gD1dlvag-26">
          <mxGeometry relative="1" as="geometry" />
        </mxCell>
        <mxCell id="Pk_mdqdX6ch0gD1dlvag-24" value="Pre-order food" style="rounded=1;whiteSpace=wrap;html=1;" vertex="1" parent="1">
          <mxGeometry x="439" y="262" width="115" height="27" as="geometry" />
        </mxCell>
        <mxCell id="Pk_mdqdX6ch0gD1dlvag-30" value="No" style="edgeStyle=none;curved=1;rounded=0;orthogonalLoop=1;jettySize=auto;html=1;fontSize=12;startSize=8;endSize=8;entryX=0.5;entryY=1;entryDx=0;entryDy=0;" edge="1" parent="1" target="Pk_mdqdX6ch0gD1dlvag-40">
          <mxGeometry relative="1" as="geometry">
            <mxPoint x="497" y="137" as="sourcePoint" />
            <mxPoint x="497" y="93" as="targetPoint" />
          </mxGeometry>
        </mxCell>
        <mxCell id="Pk_mdqdX6ch0gD1dlvag-26" value="Any changes to booking?" style="rhombus;whiteSpace=wrap;html=1;rounded=1;" vertex="1" parent="1">
          <mxGeometry x="456.5" y="137" width="80" height="80" as="geometry" />
        </mxCell>
        <mxCell id="Pk_mdqdX6ch0gD1dlvag-28" value="Yes" style="curved=1;endArrow=classic;html=1;rounded=0;fontSize=12;startSize=8;endSize=8;exitX=0;exitY=0.5;exitDx=0;exitDy=0;entryX=0.75;entryY=0;entryDx=0;entryDy=0;" edge="1" parent="1" source="Pk_mdqdX6ch0gD1dlvag-26" target="Pk_mdqdX6ch0gD1dlvag-18">
          <mxGeometry width="50" height="50" relative="1" as="geometry">
            <mxPoint x="374" y="225" as="sourcePoint" />
            <mxPoint x="424" y="175" as="targetPoint" />
            <Array as="points">
              <mxPoint x="374" y="175" />
              <mxPoint x="145" y="179" />
            </Array>
          </mxGeometry>
        </mxCell>
        <mxCell id="Pk_mdqdX6ch0gD1dlvag-29" value="" style="ellipse;whiteSpace=wrap;html=1;rounded=1;" vertex="1" parent="1">
          <mxGeometry x="470.75" y="-60" width="51.5" height="52" as="geometry" />
        </mxCell>
        <mxCell id="Pk_mdqdX6ch0gD1dlvag-32" value="End" style="ellipse;whiteSpace=wrap;html=1;aspect=fixed;" vertex="1" parent="1">
          <mxGeometry x="476" y="-54.5" width="41" height="41" as="geometry" />
        </mxCell>
        <mxCell id="Pk_mdqdX6ch0gD1dlvag-34" value="" style="ellipse;whiteSpace=wrap;html=1;rounded=1;" vertex="1" parent="1">
          <mxGeometry x="240" y="30" width="51.5" height="52" as="geometry" />
        </mxCell>
        <mxCell id="Pk_mdqdX6ch0gD1dlvag-35" value="End" style="ellipse;whiteSpace=wrap;html=1;aspect=fixed;" vertex="1" parent="1">
          <mxGeometry x="245.25" y="35.5" width="41" height="41" as="geometry" />
        </mxCell>
        <mxCell id="Pk_mdqdX6ch0gD1dlvag-37" value="No" style="endArrow=classic;html=1;rounded=0;fontSize=12;startSize=8;endSize=8;curved=1;exitX=1;exitY=0.5;exitDx=0;exitDy=0;entryX=0;entryY=0.5;entryDx=0;entryDy=0;" edge="1" parent="1" source="Pk_mdqdX6ch0gD1dlvag-7" target="Pk_mdqdX6ch0gD1dlvag-34">
          <mxGeometry width="50" height="50" relative="1" as="geometry">
            <mxPoint x="297" y="225" as="sourcePoint" />
            <mxPoint x="347" y="175" as="targetPoint" />
          </mxGeometry>
        </mxCell>
        <mxCell id="Pk_mdqdX6ch0gD1dlvag-38" value="" style="endArrow=classic;html=1;rounded=0;fontSize=12;startSize=8;endSize=8;curved=1;exitX=1;exitY=0.5;exitDx=0;exitDy=0;entryX=0;entryY=0.5;entryDx=0;entryDy=0;" edge="1" parent="1" source="Pk_mdqdX6ch0gD1dlvag-1" target="Pk_mdqdX6ch0gD1dlvag-2">
          <mxGeometry width="50" height="50" relative="1" as="geometry">
            <mxPoint x="224" y="225" as="sourcePoint" />
            <mxPoint x="274" y="175" as="targetPoint" />
          </mxGeometry>
        </mxCell>
        <mxCell id="Pk_mdqdX6ch0gD1dlvag-40" value="Confirm booking" style="rounded=1;whiteSpace=wrap;html=1;" vertex="1" parent="1">
          <mxGeometry x="439" y="42.5" width="115" height="27" as="geometry" />
        </mxCell>
        <mxCell id="Pk_mdqdX6ch0gD1dlvag-41" value="" style="endArrow=classic;html=1;rounded=0;fontSize=12;startSize=8;endSize=8;curved=1;exitX=0.5;exitY=0;exitDx=0;exitDy=0;entryX=0.5;entryY=1;entryDx=0;entryDy=0;" edge="1" parent="1" source="Pk_mdqdX6ch0gD1dlvag-40" target="Pk_mdqdX6ch0gD1dlvag-29">
          <mxGeometry width="50" height="50" relative="1" as="geometry">
            <mxPoint x="224" y="225" as="sourcePoint" />
            <mxPoint x="497" y="-4" as="targetPoint" />
          </mxGeometry>
        </mxCell>
      </root>
    </mxGraphModel>
  </diagram>
</mxfile>
